<svg xmlns="http://www.w3.org/2000/svg" width="31" height="11" viewBox="0 0 31 11">
  <g id="Icon_feather-arrow-right" data-name="Icon feather-arrow-right" transform="translate(13.5 -6.5)">
    <path id="Path_6" data-name="Path 6" d="M16.516,19H-12.516a.992.992,0,0,1-.984-1,.992.992,0,0,1,.984-1H16.516a1,1,0,0,1,0,2Z" transform="translate(0 -6)" fill="#fff"/>
    <path id="Path_7" data-name="Path 7" d="M18,17.5a1.021,1.021,0,0,1-.707-.28.927.927,0,0,1,0-1.353L21.336,12,17.293,8.133a.927.927,0,0,1,0-1.353,1.032,1.032,0,0,1,1.414,0l4.75,4.543a.927.927,0,0,1,0,1.353l-4.75,4.543A1.021,1.021,0,0,1,18,17.5Z" transform="translate(-6.25)" fill="#fff"/>
  </g>
</svg>
