<svg id="Icon_ionic-ios-mail" data-name="Icon ionic-ios-mail" xmlns="http://www.w3.org/2000/svg" width="16" height="11" viewBox="0 0 16 11">
  <path id="Path_6" data-name="Path 6" d="M19.244,10.337l-4.138,4.184a.073.073,0,0,0,0,.107L18,17.69a.493.493,0,0,1,0,.7.5.5,0,0,1-.708,0l-2.885-3.05a.079.079,0,0,0-.112,0l-.7.71a3.108,3.108,0,0,1-2.208.924,3.17,3.17,0,0,1-2.254-.951l-.677-.683a.079.079,0,0,0-.112,0L5.46,18.392a.5.5,0,0,1-.708,0,.493.493,0,0,1,0-.7l2.9-3.062a.081.081,0,0,0,0-.107L3.506,10.337a.076.076,0,0,0-.131.053v8.372a1.23,1.23,0,0,0,1.231,1.222H18.144a1.23,1.23,0,0,0,1.231-1.222V10.391A.077.077,0,0,0,19.244,10.337Z" transform="translate(-3.375 -8.984)" fill="#1e2227"/>
  <path id="Path_7" data-name="Path 7" d="M11.762,14.895a2.1,2.1,0,0,0,1.5-.629L19.3,8.143a1.212,1.212,0,0,0-.762-.268H4.987a1.2,1.2,0,0,0-.762.268l6.036,6.123A2.1,2.1,0,0,0,11.762,14.895Z" transform="translate(-3.762 -7.875)" fill="#1e2227"/>
</svg>
